<svg xmlns="http://www.w3.org/2000/svg" xmlns:xlink="http://www.w3.org/1999/xlink" zoomAndPan="magnify" preserveAspectRatio="xMidYMid meet" version="1.0" viewBox="19.05 140.84 337.66 96.5"><defs><g/></defs><g fill="#000000" fill-opacity="1"><g transform="translate(58.540772, 236.074551)"><g><path d="M 1.90625 -88.890625 L 39.234375 -88.890625 C 52.015625 -88.890625 61.535156 -87.046875 67.796875 -83.359375 C 74.066406 -79.679688 77.203125 -73.101562 77.203125 -63.625 C 77.203125 -53.125 73.394531 -45.882812 65.78125 -41.90625 C 58.664062 -38.257812 48.71875 -36.4375 35.9375 -36.4375 L 34.921875 -36.4375 L 34.921875 -2.40625 L 50.796875 -2.40625 L 50.796875 0 L 1.90625 0 L 1.90625 -2.40625 L 10.15625 -2.40625 L 10.15625 -86.46875 L 1.90625 -86.46875 Z M 34.921875 -86.46875 L 34.921875 -38.859375 L 37.59375 -38.859375 C 42.664062 -38.859375 46.175781 -40.59375 48.125 -44.0625 C 50.070312 -47.53125 51.046875 -53.160156 51.046875 -60.953125 L 51.046875 -67.046875 C 51.046875 -74.242188 50.132812 -79.28125 48.3125 -82.15625 C 46.5 -85.03125 43.175781 -86.46875 38.34375 -86.46875 Z M 34.921875 -86.46875 "/></g></g></g><g fill="#000000" fill-opacity="1"><g transform="translate(139.050802, 236.074551)"><g><path d="M 31.75 -29.84375 L 35.421875 -29.84375 L 35.421875 -39.625 C 35.421875 -47.664062 34.976562 -53.0625 34.09375 -55.8125 C 33.207031 -58.5625 31.492188 -59.9375 28.953125 -59.9375 C 27.429688 -59.9375 26.054688 -59.535156 24.828125 -58.734375 C 23.597656 -57.929688 22.984375 -56.828125 22.984375 -55.421875 C 22.984375 -54.023438 23.238281 -52.609375 23.75 -51.171875 L 26.921875 -51.171875 C 27.597656 -49.398438 27.9375 -47.265625 27.9375 -44.765625 C 27.9375 -42.265625 26.878906 -40.101562 24.765625 -38.28125 C 22.648438 -36.46875 19.984375 -35.5625 16.765625 -35.5625 C 9.484375 -35.5625 5.84375 -39.070312 5.84375 -46.09375 C 5.84375 -56.507812 14.6875 -61.71875 32.375 -61.71875 C 42.445312 -61.71875 49.410156 -60 53.265625 -56.5625 C 57.117188 -53.132812 59.046875 -46.851562 59.046875 -37.71875 L 59.046875 -11.9375 C 59.046875 -7.53125 60.273438 -5.328125 62.734375 -5.328125 C 65.609375 -5.328125 67.300781 -9.6875 67.8125 -18.40625 L 69.71875 -18.28125 C 69.375 -10.832031 67.972656 -5.710938 65.515625 -2.921875 C 63.066406 -0.128906 59.046875 1.265625 53.453125 1.265625 C 43.296875 1.265625 37.457031 -1.863281 35.9375 -8.125 C 34.832031 -4.90625 33.179688 -2.535156 30.984375 -1.015625 C 28.785156 0.503906 25.566406 1.265625 21.328125 1.265625 C 8.804688 1.265625 2.546875 -3.851562 2.546875 -14.09375 C 2.546875 -20.101562 4.9375 -24.226562 9.71875 -26.46875 C 14.5 -28.71875 21.84375 -29.84375 31.75 -29.84375 Z M 26.671875 -14.21875 C 26.671875 -9.820312 26.898438 -6.988281 27.359375 -5.71875 C 27.828125 -4.445312 28.71875 -3.8125 30.03125 -3.8125 C 31.34375 -3.8125 32.566406 -4.890625 33.703125 -7.046875 C 34.847656 -9.203125 35.421875 -12.1875 35.421875 -16 L 35.421875 -27.8125 L 34.546875 -27.8125 C 29.296875 -27.8125 26.671875 -23.957031 26.671875 -16.25 Z M 26.671875 -14.21875 "/></g></g></g><g fill="#000000" fill-opacity="1"><g transform="translate(208.766897, 236.074551)"><g><path d="M 1.265625 -95.234375 L 31.875 -95.234375 L 31.875 -48.765625 C 33.226562 -52.660156 35.300781 -55.789062 38.09375 -58.15625 C 40.882812 -60.53125 45.117188 -61.71875 50.796875 -61.71875 C 63.910156 -61.71875 70.46875 -54.648438 70.46875 -40.515625 L 70.46875 -2.28125 L 77.59375 -2.28125 L 77.59375 0 L 41.65625 0 L 41.65625 -2.28125 L 46.859375 -2.28125 L 46.859375 -43.5625 C 46.859375 -48.632812 46.519531 -51.910156 45.84375 -53.390625 C 45.164062 -54.878906 43.9375 -55.625 42.15625 -55.625 C 39.445312 -55.625 37.054688 -53.84375 34.984375 -50.28125 C 32.910156 -46.726562 31.875 -42.410156 31.875 -37.328125 L 31.875 -2.28125 L 37.328125 -2.28125 L 37.328125 0 L 1.265625 0 L 1.265625 -2.28125 L 8.25 -2.28125 L 8.25 -92.953125 L 1.265625 -92.953125 Z M 1.265625 -95.234375 "/></g></g></g><g fill="#000000" fill-opacity="1"><g transform="translate(286.991159, 236.074551)"><g><path d="M 31.75 -29.84375 L 35.421875 -29.84375 L 35.421875 -39.625 C 35.421875 -47.664062 34.976562 -53.0625 34.09375 -55.8125 C 33.207031 -58.5625 31.492188 -59.9375 28.953125 -59.9375 C 27.429688 -59.9375 26.054688 -59.535156 24.828125 -58.734375 C 23.597656 -57.929688 22.984375 -56.828125 22.984375 -55.421875 C 22.984375 -54.023438 23.238281 -52.609375 23.75 -51.171875 L 26.921875 -51.171875 C 27.597656 -49.398438 27.9375 -47.265625 27.9375 -44.765625 C 27.9375 -42.265625 26.878906 -40.101562 24.765625 -38.28125 C 22.648438 -36.46875 19.984375 -35.5625 16.765625 -35.5625 C 9.484375 -35.5625 5.84375 -39.070312 5.84375 -46.09375 C 5.84375 -56.507812 14.6875 -61.71875 32.375 -61.71875 C 42.445312 -61.71875 49.410156 -60 53.265625 -56.5625 C 57.117188 -53.132812 59.046875 -46.851562 59.046875 -37.71875 L 59.046875 -11.9375 C 59.046875 -7.53125 60.273438 -5.328125 62.734375 -5.328125 C 65.609375 -5.328125 67.300781 -9.6875 67.8125 -18.40625 L 69.71875 -18.28125 C 69.375 -10.832031 67.972656 -5.710938 65.515625 -2.921875 C 63.066406 -0.128906 59.046875 1.265625 53.453125 1.265625 C 43.296875 1.265625 37.457031 -1.863281 35.9375 -8.125 C 34.832031 -4.90625 33.179688 -2.535156 30.984375 -1.015625 C 28.785156 0.503906 25.566406 1.265625 21.328125 1.265625 C 8.804688 1.265625 2.546875 -3.851562 2.546875 -14.09375 C 2.546875 -20.101562 4.9375 -24.226562 9.71875 -26.46875 C 14.5 -28.71875 21.84375 -29.84375 31.75 -29.84375 Z M 26.671875 -14.21875 C 26.671875 -9.820312 26.898438 -6.988281 27.359375 -5.71875 C 27.828125 -4.445312 28.71875 -3.8125 30.03125 -3.8125 C 31.34375 -3.8125 32.566406 -4.890625 33.703125 -7.046875 C 34.847656 -9.203125 35.421875 -12.1875 35.421875 -16 L 35.421875 -27.8125 L 34.546875 -27.8125 C 29.296875 -27.8125 26.671875 -23.957031 26.671875 -16.25 Z M 26.671875 -14.21875 "/></g></g></g><g fill="#000000" fill-opacity="1"><g transform="translate(18.280171, 235.422803)"><g><path d="M 19.9375 -69.203125 C 15.445312 -69.203125 12.25 -70.34375 10.34375 -72.625 C 8.4375 -74.914062 7.484375 -77.753906 7.484375 -81.140625 C 7.484375 -84.523438 8.519531 -87.316406 10.59375 -89.515625 C 12.675781 -91.722656 15.832031 -92.828125 20.0625 -92.828125 C 24.289062 -92.828125 27.503906 -91.832031 29.703125 -89.84375 C 31.910156 -87.851562 33.015625 -85.015625 33.015625 -81.328125 C 33.015625 -77.648438 31.957031 -74.707031 29.84375 -72.5 C 27.726562 -70.300781 24.425781 -69.203125 19.9375 -69.203125 Z M 0.765625 -60.4375 L 31.875 -60.4375 L 31.875 -2.28125 L 38.984375 -2.28125 L 38.984375 0 L 1.265625 0 L 1.265625 -2.28125 L 8.25 -2.28125 L 8.25 -58.15625 L 0.765625 -58.15625 Z M 0.765625 -60.4375 "/></g></g></g></svg>